<?xml version="1.0" encoding="UTF-8" standalone="no"?>
<!DOCTYPE svg PUBLIC "-//W3C//DTD SVG 1.1//EN" "http://www.w3.org/Graphics/SVG/1.1/DTD/svg11.dtd">
<svg width="100%" height="100%" viewBox="0 0 460 460" version="1.1" xmlns="http://www.w3.org/2000/svg" xmlns:xlink="http://www.w3.org/1999/xlink" xml:space="preserve" xmlns:serif="http://www.serif.com/" style="fill-rule:evenodd;clip-rule:evenodd;stroke-linejoin:round;stroke-miterlimit:2;">
    <g transform="matrix(1,0,0,1,-24.1726,-13.3431)">
        <g id="github">
            <g transform="matrix(0.895617,0,0,0.882796,29.8905,32.1076)">
                <path d="M85.015,47.745C83.957,46.618 83.405,45.099 83.487,43.545C83.57,41.992 84.28,40.541 85.451,39.536C130.036,1.601 187.502,-21.256 250.187,-21.256C391.793,-21.256 506.759,95.38 506.759,239.042C506.759,382.705 391.793,499.34 250.187,499.34C108.582,499.34 -6.384,382.705 -6.384,239.042C-6.384,191.584 6.162,147.075 28.07,108.745C28.898,107.318 30.302,106.331 31.911,106.048C33.519,105.764 35.169,106.212 36.423,107.273C36.44,107.276 36.451,107.286 36.462,107.296C38.553,109.064 39.076,112.107 37.7,114.489C16.766,151.132 4.781,193.678 4.781,239.042C4.781,353.069 80.503,449.295 183.67,478.743C183.703,478.637 183.735,478.531 183.765,478.423L183.765,437.627C165.118,439.929 146.602,439.033 127.279,431.904C126.91,431.768 126.555,431.593 126.222,431.381C116.417,425.147 109.351,421.212 103.363,407.8C103.226,407.493 103.116,407.175 103.035,406.848C99.795,393.811 87.875,376.192 75.901,370.101C70.538,367.373 67.659,363.165 66.152,359.869C66.143,359.85 66.135,359.831 66.126,359.811L65.488,357.887L65.238,355.915L65.362,353.967L65.841,352.099L66.653,350.356L67.783,348.784L69.21,347.435C69.21,347.435 70.792,346.435 70.841,346.398C73.981,344.771 77.108,344.432 81.797,344.76C95.096,345.692 110.811,353.733 122.243,369.04C122.347,369.178 122.444,369.321 122.535,369.469C130.608,382.639 134.827,387.212 144.96,393.348C158.027,398.185 171.091,396.74 184.16,392.504C185.358,385.003 189.197,375.655 194.555,367.888C164.38,363.695 138.669,353.755 116.66,332.212C116.546,332.101 116.437,331.985 116.334,331.864C99.62,312.475 89.121,283.088 87.927,253.485C86.773,224.889 94.304,196.189 112.74,175.986C105.363,154.607 108.037,131.014 118.137,109.065C119.146,106.874 121.415,105.574 123.785,105.829C152.174,108.886 170.455,120.843 189.738,131.641C231.444,121.425 271.901,121.713 310.245,132.01C330.074,119.497 350.127,107.393 377.193,106.353C379.468,106.266 381.567,107.588 382.499,109.696C392.917,133.271 393.961,156.066 387.025,176.628C400.883,191.158 408.453,211.722 410.602,233.794C413.963,268.32 404.033,306.409 385.604,329.652C385.48,329.807 385.349,329.956 385.21,330.097C364.987,350.707 341.061,363.113 306.125,368.052C311.644,376.542 316.548,389.516 316.548,397.986C316.548,397.986 316.548,466.006 316.549,478.787C419.796,449.391 495.594,353.126 495.594,239.042C495.594,101.632 385.631,-9.928 250.187,-9.928C190.249,-9.928 135.301,11.919 92.664,48.187C90.414,50.116 87.072,49.932 85.041,47.768C85.031,47.762 85.023,47.754 85.015,47.745ZM194.494,481.562C212.389,485.782 231.034,488.013 250.187,488.013C269.172,488.013 287.657,485.821 305.408,481.673C305.406,481.658 305.405,481.644 305.404,481.629C305.39,481.465 305.383,481.301 305.383,481.137L305.383,397.986C305.383,391.9 301.946,382.971 298.066,376.331C296.811,374.182 295.503,372.277 294.215,370.822C293.502,370.016 292.937,369.295 292.313,369.083C289.788,368.222 288.214,365.672 288.554,362.992C288.894,360.311 291.052,358.248 293.709,358.063C293.709,358.063 294.602,358.001 294.608,358.001C332.048,354.475 356.671,343.032 377.093,322.312C393.807,301.055 402.55,266.332 399.49,234.908C397.486,214.323 390.415,195.097 376.75,182.271C375.062,180.687 374.504,178.215 375.345,176.043C382.226,158.265 382.011,138.467 373.812,117.903C349.909,119.888 332.068,131.561 314.086,142.928C312.762,143.765 311.153,144.001 309.649,143.58C271.752,132.971 231.665,132.688 190.31,143.162C188.951,143.506 187.514,143.32 186.285,142.639C168.417,132.754 151.885,121.26 126.619,117.6C118.714,136.703 117.062,156.983 124.384,175.207C125.237,177.331 124.743,179.768 123.133,181.378C105.029,199.483 98.008,226.366 99.083,253.022C100.166,279.864 109.467,306.582 124.589,324.232C146.955,346.034 173.568,354.624 205.149,357.738L205.8,357.743C208.109,357.76 210.168,359.217 210.983,361.408C211.797,363.599 211.198,366.073 209.476,367.632C201.343,374.996 195.119,388.406 194.934,396.832C194.882,399.186 193.4,401.262 191.212,402.046C174.334,408.096 157.45,410.215 140.577,403.78C140.272,403.664 139.978,403.521 139.698,403.353C127.639,396.115 122.606,391.006 113.186,375.67C104.016,363.504 91.653,356.805 81.028,356.061C79.301,355.94 78.008,355.804 76.82,356.133C77.618,357.478 78.889,358.949 80.906,359.975C95.181,367.237 109.637,387.906 113.73,403.561C118.397,413.741 124.129,416.716 131.641,421.458C151.086,428.507 169.652,428.54 188.475,425.519C190.088,425.261 191.732,425.731 192.974,426.807C194.215,427.883 194.93,429.457 194.93,431.114L194.93,479.137C194.93,479.57 194.881,480.002 194.784,480.423C194.696,480.808 194.599,481.187 194.494,481.562Z" style="fill:white;"/>
            </g>
            <g transform="matrix(1.11261,0,0,1.11261,-35.4697,15.5865)">
                <circle cx="106.945" cy="74.941" r="4.527" style="fill:white;"/>
            </g>
        </g>
    </g>
</svg>
